# xmcd CD database file
#
# Track frame offsets:
#	150
#	16709
#	27285
#	39120
#	51988
#	62254
#	73244
#	89132
#	98748
#	111962
#	123290
#	134725
#	145810
#	163311
#	174548
#	187606
#	199419
#	212740
#	223365
#	231938
#	247796
#	259379
#	269360
#	280531
#	290214
#	302469
#	313371
#	324237
#
# Disc length: 4487 seconds
#
# Revision: 1
# Processed by: cddbd v1.5.2PL0 Copyright (c) Steve Scherf et al.
# Submitted via: CDex 1.70beta2
#
DISCID=ab11851c
DTITLE=Henson Cargill - A Very Well Travelled Man
DYEAR=2005
DGENRE=Country
TTITLE0=Reprints (Plastic People)
TTITLE1=None of My Business
TTITLE2=Skip a Rope
TTITLE3=Row Row Row
TTITLE4=This Generation Shall Not Pass
TTITLE5=Wildflower
TTITLE6=Hemphill Kentucky Consolidated Coalmine
TTITLE7=Tall Oak Tree
TTITLE8=Johnny One Time
TTITLE9=What's My Name?
TTITLE10=Going Backwards
TTITLE11=Greenback Dollar
TTITLE12=Four Shades Of Love
TTITLE13=It's Over
TTITLE14=The Pain Will Go Away
TTITLE15=Six White Horses
TTITLE16=She Thinks I'm on that Train
TTITLE17=Husbands and Wives
TTITLE18=Coming on Strong
TTITLE19=With Pen in Hand
TTITLE20=A Candle for Amy
TTITLE21=I Wonder Where They'll Sleep Tonight
TTITLE22=The Most Uncomlicated Goodbye I've Ever Heard
TTITLE23=Black Jack County Chain
TTITLE24=So Many Ways of Saying She's Gone
TTITLE25=Little Girls and Little Boys
TTITLE26=Bless 'Em All
TTITLE27=Don't It Make You Want To Go Home (Live)
EXTD=YEAR: 2005
EXTT0=
EXTT1=
EXTT2=
EXTT3=
EXTT4=
EXTT5=
EXTT6=
EXTT7=
EXTT8=
EXTT9=
EXTT10=
EXTT11=
EXTT12=
EXTT13=
EXTT14=
EXTT15=
EXTT16=
EXTT17=
EXTT18=
EXTT19=
EXTT20=
EXTT21=
EXTT22=
EXTT23=
EXTT24=
EXTT25=
EXTT26=
EXTT27=
PLAYORDER=
